<?xml version="1.0" encoding="UTF-8"?>
<svg id="Layer_1" xmlns="http://www.w3.org/2000/svg" version="1.1" viewBox="0 0 511 511">
  <!-- Generator: Adobe Illustrator 29.0.1, SVG Export Plug-In . SVG Version: 2.1.0 Build 192)  -->
  <defs>
    <style>
      .st0 {
        fill: #fcb216;
      }
    </style>
  </defs>
  <path class="st0" d="M106.8,189.6c0,82.5,67.2,149.7,149.7,149.7s149.7-67.2,149.7-149.7S339,39.9,256.5,39.9,106.8,107.1,106.8,189.6ZM256.5,59.9c71.5,0,129.7,58.2,129.7,129.7s-58.2,129.7-129.7,129.7-129.7-58.2-129.7-129.7S185,59.9,256.5,59.9Z"/>
  <path class="st0" d="M164.1,171.8l38.7,38.1-8.9,53.6c-.6,3.7.9,7.5,4,9.7,3.1,2.2,7.1,2.5,10.5.8l48.2-25,48.2,25c3.3,1.7,7.4,1.5,10.5-.8,3.1-2.2,4.6-6,4-9.7l-8.9-53.6,38.7-38.1c2.7-2.7,3.7-6.6,2.5-10.2-1.2-3.6-4.3-6.2-8-6.8l-53.7-8.1-24.3-48.6c-1.7-3.4-5.1-5.5-8.9-5.5s-7.2,2.1-8.9,5.5l-24.3,48.6-53.7,8.1c-3.7.6-6.8,3.2-8,6.8-1.2,3.6-.2,7.5,2.5,10.2ZM231.4,165.7c3.2-.5,6-2.5,7.4-5.4l17.7-35.4,17.7,35.4c1.5,2.9,4.2,4.9,7.4,5.4l39.1,5.9-28.2,27.7c-2.3,2.3-3.4,5.5-2.8,8.7l6.5,39-35.1-18.2c-1.4-.7-3-1.1-4.6-1.1s-3.2.4-4.6,1.1l-35.1,18.2,6.5-39c.5-3.2-.5-6.5-2.8-8.7l-28.2-27.7,39.1-5.9Z"/>
  <path class="st0" d="M266.5,10c0,5.5-4.5,10-10,10s-10-4.5-10-10,4.5-10,10-10,10,4.5,10,10Z"/>
  <path class="st0" d="M209.5,5.9C125.5,27.3,66.9,102.9,66.9,189.6s22.7,104.7,62.4,140.6l-60.1,106c-1.9,3.4-1.7,7.6.6,10.8,2.3,3.2,6.3,4.7,10.1,3.9l68.3-14.2,24,67.6c1.3,3.7,4.6,6.3,8.5,6.6s7.6-1.6,9.6-5l66.3-116.5,66.3,116.5c1.8,3.1,5.1,5,8.7,5s.6,0,.9,0c3.9-.3,7.2-2.9,8.5-6.6l24-67.6,68.3,14.2c3.8.8,7.8-.7,10.1-3.9,2.3-3.2,2.5-7.4.6-10.8l-60.1-106c39.8-36,62.4-86.7,62.4-140.6,0-86.8-58.6-162.3-142.6-183.7-5.3-1.4-10.8,1.9-12.1,7.2s1.9,10.8,7.2,12.1c75.1,19.2,127.6,86.8,127.6,164.4s-76.7,169.7-169.7,169.7-169.7-75.3-169.7-169.7S139.3,44.4,214.4,25.2c5.3-1.4,8.6-6.8,7.2-12.1-1.4-5.3-6.8-8.6-12.1-7.2ZM183.7,477.1l-19.6-55.3c-1.7-4.7-6.5-7.5-11.4-6.4l-55.2,11.5,47.6-83.9c27.7,20.2,60.6,32.5,94.8,35.5l-56.1,98.6ZM360.4,415.4c-4.9-1-9.8,1.7-11.4,6.4l-19.6,55.3-56.1-98.6c34.2-3,67-15.3,94.8-35.5l47.6,83.9-55.2-11.5Z"/>
</svg>